<svg width="14" height="44" viewBox="0 0 14 44" fill="none" xmlns="http://www.w3.org/2000/svg">
    <g clip-path="url(#clip0_1_975)">
    <path d="M14.1987 27.3428L10.6987 23.8428C11.5804 22.763 12.0136 21.3857 11.9086 19.9956C11.8037 18.6055 11.1687 17.3088 10.1349 16.3736C9.10114 15.4383 7.74754 14.936 6.3539 14.9704C4.96025 15.0048 3.63309 15.5733 2.64671 16.5584C1.66032 17.5436 1.0901 18.87 1.0539 20.2636C1.0177 21.6572 1.51828 23.0114 2.4522 24.0464C3.38611 25.0814 4.68196 25.7181 6.07194 25.8248C7.46192 25.9315 8.83977 25.5001 9.92073 24.6198L13.4207 28.1198C13.4718 28.1709 13.5325 28.2114 13.5992 28.2391C13.6659 28.2667 13.7375 28.281 13.8097 28.281C13.882 28.281 13.9535 28.2667 14.0203 28.2391C14.087 28.2114 14.1476 28.1709 14.1987 28.1198C14.2498 28.0687 14.2903 28.0081 14.318 27.9414C14.3456 27.8746 14.3599 27.8031 14.3599 27.7308C14.3599 27.6586 14.3456 27.5871 14.318 27.5203C14.2903 27.4536 14.2498 27.3929 14.1987 27.3418V27.3428ZM2.17773 20.4178C2.17793 19.5637 2.4314 18.7287 2.9061 18.0186C3.3808 17.3085 4.0554 16.7551 4.84461 16.4283C5.63382 16.1016 6.5022 16.0162 7.33994 16.1829C8.17767 16.3497 8.94715 16.7611 9.55108 17.3652C10.155 17.9693 10.5662 18.7388 10.7328 19.5766C10.8994 20.4144 10.8138 21.2827 10.4869 22.0719C10.1599 22.861 9.60637 23.5355 8.89613 24.01C8.1859 24.4846 7.3509 24.7378 6.49673 24.7378C5.35141 24.7368 4.25332 24.2813 3.44355 23.4713C2.63378 22.6613 2.17852 21.5632 2.17773 20.4178Z" fill="white"/>
    </g>
    <defs>
    <clipPath id="clip0_1_975">
    <rect width="14" height="44" fill="white" transform="translate(0.21875)"/>
    </clipPath>
    </defs>
</svg>
    